<?xml version="1.0" encoding="UTF-8" standalone="no"?>
<svg
   xmlns:dc="http://purl.org/dc/elements/1.1/"
   xmlns:cc="http://creativecommons.org/ns#"
   xmlns:rdf="http://www.w3.org/1999/02/22-rdf-syntax-ns#"
   xmlns:svg="http://www.w3.org/2000/svg"
   xmlns="http://www.w3.org/2000/svg"
   xmlns:sodipodi="http://sodipodi.sourceforge.net/DTD/sodipodi-0.dtd"
   xmlns:inkscape="http://www.inkscape.org/namespaces/inkscape"
   sodipodi:docname="corner1.svg"
   inkscape:version="1.0 (4035a4fb49, 2020-05-01)"
   id="svg8"
   version="1.1"
   viewBox="0 0 270.93333 270.93334"
   height="1024"
   width="1024">
  <defs
     id="defs2" />
  <sodipodi:namedview
     inkscape:window-maximized="1"
     inkscape:window-y="-8"
     inkscape:window-x="1352"
     inkscape:window-height="1027"
     inkscape:window-width="1920"
     units="px"
     showgrid="false"
     inkscape:document-rotation="0"
     inkscape:current-layer="layer1"
     inkscape:document-units="px"
     inkscape:cy="568.92441"
     inkscape:cx="826.32296"
     inkscape:zoom="0.7"
     inkscape:pageshadow="2"
     inkscape:pageopacity="0.0"
     borderopacity="1.0"
     bordercolor="#666666"
     pagecolor="#ffffff"
     id="base" />
  <metadata
     id="metadata5">
    <rdf:RDF>
      <cc:Work
         rdf:about="">
        <dc:format>image/svg+xml</dc:format>
        <dc:type
           rdf:resource="http://purl.org/dc/dcmitype/StillImage" />
        <dc:title></dc:title>
        <cc:license
           rdf:resource="http://creativecommons.org/publicdomain/zero/1.0/" />
      </cc:Work>
      <cc:License
         rdf:about="http://creativecommons.org/publicdomain/zero/1.0/">
        <cc:permits
           rdf:resource="http://creativecommons.org/ns#Reproduction" />
        <cc:permits
           rdf:resource="http://creativecommons.org/ns#Distribution" />
        <cc:permits
           rdf:resource="http://creativecommons.org/ns#DerivativeWorks" />
      </cc:License>
    </rdf:RDF>
  </metadata>
  <g
     style="display:inline"
     id="layer1"
     inkscape:groupmode="layer"
     inkscape:label="Layer 1">
    <g
       id="g24">
      <path
         id="path36"
         d="M 94.985412,211.22162 C 71.77484,191.79936 52.466007,175.64942 52.076895,175.33285 l -0.70748,-0.57557 -8.801023,-61.44392 C 37.72783,79.519199 33.819477,51.819019 33.883164,51.757403 34.029355,51.615967 143.88904,24.574058 144.44748,24.542052 c 0.70175,-0.04022 47.7537,13.310402 48.07917,13.642089 0.16878,0.172003 11.23344,19.362731 24.58813,42.646063 16.66685,29.057926 24.26447,42.540756 24.2277,42.994786 -0.0982,1.21281 -9.19672,55.80945 -9.31691,55.90721 -0.38647,0.31436 -93.63647,66.04802 -94.17766,66.38759 -0.65997,0.4141 -0.75629,0.33568 -42.862498,-34.89817 z"
         style="fill:#9f9f9f;stroke-width:0.264583" />
      <path
         id="path34"
         d="M 94.985412,211.22162 C 71.77484,191.79936 52.466007,175.64942 52.076895,175.33285 l -0.70748,-0.57557 -8.801023,-61.44392 C 37.72783,79.519199 33.819477,51.819019 33.883164,51.757403 34.029355,51.615967 143.88904,24.574058 144.44748,24.542052 c 0.41329,-0.02369 47.6811,13.247304 47.87632,13.441839 0.14497,0.144463 4.65239,-1.254339 -34.49985,10.706438 -9.60437,2.934078 -21.92734,6.69957 -27.38437,8.367757 -5.45703,1.668187 -15.33922,4.68643 -21.96042,6.707206 -25.339879,7.733672 -30.028779,9.208166 -29.983919,9.428866 0.02545,0.125243 7.502794,14.038963 16.616303,30.919382 9.113506,16.88041 22.368146,41.44187 29.454756,54.58101 9.45897,17.5377 12.99154,23.86218 13.28645,23.78715 0.22094,-0.0562 5.28109,-2.90196 11.24479,-6.3239 5.96369,-3.42194 16.61761,-9.52939 23.67537,-13.57212 17.45999,-10.00118 31.35216,-17.96466 49.87395,-28.58949 18.32999,-10.5148 18.37351,-10.53901 18.57772,-10.3348 0.1628,0.1628 -8.93029,55.59817 -9.17829,55.95479 -0.13731,0.19745 -92.91885,65.70078 -94.19838,66.50361 -0.65997,0.4141 -0.75629,0.33568 -42.862498,-34.89817 z"
         style="fill:#919191;stroke-width:0.264583" />
      <path
         id="path32"
         d="M 94.985412,211.20338 C 71.77484,191.79115 52.466108,175.64942 52.07712,175.33285 l -0.707252,-0.57557 -8.767426,-61.20356 C 37.780358,79.891754 33.871904,52.25225 33.916986,52.132595 c 0.08416,-0.22335 43.372141,20.273179 44.195823,20.926382 0.251685,0.199591 7.618087,13.638362 16.369784,29.863933 38.279097,70.96914 42.906757,79.51177 43.115237,79.59053 0.1212,0.0458 0.15432,0.25531 0.0736,0.46562 -0.0807,0.21031 -0.22284,14.58819 -0.31587,31.95083 l -0.16913,31.56845 z"
         style="fill:#8f8f8f;stroke-width:0.264583" />
      <path
         id="path30"
         d="M 94.985412,211.20338 C 71.77484,191.79115 52.466108,175.64942 52.07712,175.33285 l -0.707252,-0.57557 -8.767426,-61.20356 C 37.780358,79.891754 33.871904,52.25225 33.916986,52.132595 c 0.08414,-0.223316 43.371829,20.273012 44.19595,20.926382 0.251751,0.199591 7.200336,12.864456 15.4413,28.144143 8.240964,15.27969 21.506714,39.8668 29.479464,54.63803 l 14.49589,26.85679 -0.17157,31.9002 -0.17157,31.9002 z"
         style="fill:#8a8a8a;stroke-width:0.264583" />
      <path
         id="path28"
         d="M 94.985412,211.20338 C 71.77484,191.79115 52.466108,175.64942 52.07712,175.33285 l -0.707252,-0.57557 -8.767426,-61.20356 C 37.780358,79.891754 33.871904,52.255449 33.916986,52.139707 c 0.04509,-0.115742 0.915408,0.187537 1.934054,0.673952 1.018646,0.486415 3.876146,1.851231 6.35,3.032927 2.473854,1.181695 11.522603,5.484018 20.108332,9.560718 8.585729,4.0767 15.752759,7.547718 15.926733,7.713374 0.173977,0.165655 7.063028,12.802755 15.309008,28.082442 8.245977,15.27969 21.515837,39.8668 29.488587,54.63803 l 14.49589,26.85679 -0.17157,31.9002 -0.17157,31.9002 z"
         style="fill:#848484;stroke-width:0.264583" />
      <path
         id="path26"
         d="M 94.985412,211.20338 C 71.77484,191.79116 52.466108,175.64942 52.07712,175.33285 l -0.707252,-0.57557 -8.767426,-61.20356 C 37.780358,79.891754 33.871904,52.255449 33.916986,52.139707 c 0.04509,-0.115742 0.915408,0.187537 1.934054,0.673952 1.018646,0.486415 3.876146,1.851231 6.35,3.032927 2.473854,1.181695 11.522603,5.484018 20.108332,9.560718 8.585729,4.0767 15.752709,7.547718 15.926622,7.713374 0.173911,0.165655 7.480781,13.576661 16.237489,29.802232 8.756707,16.22557 21.975927,40.71878 29.376057,54.42935 7.40012,13.71057 13.51321,25.2001 13.58463,25.53229 0.0714,0.33219 0.0449,14.78119 -0.0589,32.10889 l -0.1888,31.5049 z"
         style="fill:#838383;stroke-width:0.264583" />
    </g>
  </g>
</svg>
